PathFileType	4	(X/Y/Z)	C:/Users/CLatella/Desktop/xsens/test 22settembre2016/Meri Veloce/Meri-002_My MVN System.trc	
DataRate	CameraRate	NumFrames	NumMarkers	Units	OrigDataRate	OrigDataStartFrame	OrigNumFrames	
240.00	240.00	5	64	mm	240.00	523	597	
Frame#	Time	pHipOrigin			pRightASI			pLeftASI			pRightCSI			pLeftCSI			pRightIschialTub			pLeftIschialTub			pSacrum			pL5SpinalProcess			pL3SpinalProcess			pT12SpinalProcess			pPX			pIJ			pT4SpinalProcess			pT8SpinalProcess			pC7SpinalProcess			pTopOfHead			pRightAuricularis			pLeftAuricularis			pBackOfHead			pRightAcromion			pLeftAcromion			pRightArmLatEpicondyle			pRightArmMedEpicondyle			pLeftArmLatEpicondyle			pLeftArmMedEpicondyle			pRightUlnarStyloid			pRightRadialStyloid			pRightOlecranon			pLeftUlnarStyloid			pLeftRadialStyloid			pLeftOlecranon			pRightTopOfHand			pRightPinky			pRightBallHand			pLeftTopOfHand			pLeftPinky			pLeftBallHand			pRightGreaterTrochanter			pRightKneeLatEpicondyle			pRightKneeMedEpicondyle			pRightPatella			pLeftGreaterTrochanter			pLeftKneeLatEpicondyle			pLeftKneeMedEpicondyle			pLeftPatella			pRightLatMalleolus			pRightMedMalleolus			pRightTibialTub			pLeftLatMalleolus			pLeftMedMalleolus			pLeftTibialTub			pRightHeelFoot			pRightFirstMetatarsal			pRightFifthMetatarsal			pRightPivotFoot			pRightHeelCenter			pRightToe			pLeftHeelFoot			pLeftFirstMetatarsal			pLeftFifthMetatarsal			pLeftPivotFoot			pLeftHeelCenter			pLeftToe			
		X1	Y1	Z1	X2	Y2	Z2	X3	Y3	Z3	X4	Y4	Z4	X5	Y5	Z5	X6	Y6	Z6	X7	Y7	Z7	X8	Y8	Z8	X9	Y9	Z9	X10	Y10	Z10	X11	Y11	Z11	X12	Y12	Z12	X13	Y13	Z13	X14	Y14	Z14	X15	Y15	Z15	X16	Y16	Z16	X17	Y17	Z17	X18	Y18	Z18	X19	Y19	Z19	X20	Y20	Z20	X21	Y21	Z21	X22	Y22	Z22	X23	Y23	Z23	X24	Y24	Z24	X25	Y25	Z25	X26	Y26	Z26	X27	Y27	Z27	X28	Y28	Z28	X29	Y29	Z29	X30	Y30	Z30	X31	Y31	Z31	X32	Y32	Z32	X33	Y33	Z33	X34	Y34	Z34	X35	Y35	Z35	X36	Y36	Z36	X37	Y37	Z37	X38	Y38	Z38	X39	Y39	Z39	X40	Y40	Z40	X41	Y41	Z41	X42	Y42	Z42	X43	Y43	Z43	X44	Y44	Z44	X45	Y45	Z45	X46	Y46	Z46	X47	Y47	Z47	X48	Y48	Z48	X49	Y49	Z49	X50	Y50	Z50	X51	Y51	Z51	X52	Y52	Z52	X53	Y53	Z53	X54	Y54	Z54	X55	Y55	Z55	X56	Y56	Z56	X57	Y57	Z57	X58	Y58	Z58	X59	Y59	Z59	X60	Y60	Z60	X61	Y61	Z61	X62	Y62	Z62	X63	Y63	Z63	X64	Y64	Z64	

523	2.175	148.88781	216.99234	926.00102	215.53904	100.52809	1003.47681	205.51630	339.92125	1001.42215	177.10183	120.32300	1073.78634	168.83307	318.17191	1072.03236	100.07707	164.92420	877.44084	95.91763	263.84865	876.58891	80.23204	214.28620	946.84832	113.75811	216.79188	1019.21251	113.65788	215.13813	1123.34879	116.51436	212.68256	1215.10698	260.49103	211.02881	1291.63061	265.55252	205.61653	1402.13133	130.04506	205.26573	1387.09721	122.97903	209.17460	1306.36404	133.95393	203.11084	1436.30887	288.05357	199.10175	1640.62244	231.17452	134.80586	1561.69336	230.87383	265.35206	1563.54757	182.66445	199.70311	1579.68418	187.02434	33.52607	1395.21563	168.43216	381.86642	1393.71222	332.40420	81.58511	1117.58571	310.10360	138.36394	1116.18253	297.67540	368.53618	1103.80445	285.39754	308.85076	1101.14842	392.44042	107.74446	897.53644	432.13047	127.63960	913.27214	301.98518	97.77184	1109.71786	383.47006	342.77774	891.07177	419.15102	318.17191	909.46350	273.82128	353.30161	1094.03227	541.82937	104.03605	793.50039	467.86154	82.63750	822.96725	423.36057	107.99503	869.77345	539.42391	383.06915	812.74405	465.75677	395.34701	847.67330	415.79340	355.40639	874.58436	142.42315	67.65350	902.99883	131.24779	70.05896	522.03446	142.67372	142.67372	516.47183	178.10410	102.48252	520.68139	158.76021	365.12845	899.94190	111.50299	365.02822	521.73377	96.21831	293.01483	517.92513	143.67599	318.17191	517.57434	115.16129	54.12280	95.26615	114.45970	116.91527	92.05887	202.15868	106.44151	481.89338	68.25486	380.46324	96.56911	76.12272	318.22202	92.30944	166.82852	334.96000	481.29201	76.17283	83.68989	0.10023	220.50030	115.51209	1.25284	220.19962	48.76063	2.65603	239.29294	82.93818	2.20500	115.66243	83.58966	4.86103	316.16736	82.63750	2.20500	32.72425	343.32899	1.40318	180.55968	342.12626	0.60136	166.42761	407.32419	2.30523	192.18606	377.85733	1.45330	71.46214	351.59775	5.66285	267.30650	394.09417	0.45102 
524	2.179	148.88781	216.99234	926.00102	215.53904	100.57820	1003.47681	205.46619	339.97137	1001.37203	177.15194	120.37312	1073.78634	168.83307	318.22202	1072.03236	100.07707	164.97431	877.44084	95.91763	263.89877	876.53880	80.23204	214.28620	946.84832	113.75811	216.84200	1019.21251	113.60777	215.13813	1123.29868	116.46425	212.68256	1215.05687	260.44092	211.02881	1291.68072	265.45229	205.66664	1402.18144	129.94483	205.31585	1387.09721	122.87880	209.22471	1306.36404	133.85370	203.11084	1436.30887	287.70277	199.10175	1640.77278	230.92395	134.80586	1561.74347	230.62327	265.35206	1563.64779	182.41388	199.70311	1579.68418	186.97423	33.52607	1395.16552	168.33193	381.86642	1393.71222	332.45431	81.73545	1117.68594	310.10360	138.46416	1116.28276	297.87586	368.58629	1103.95479	285.59800	308.90087	1101.24865	392.54064	107.79458	897.63667	432.23070	127.68972	913.37237	301.98518	97.87206	1109.81809	383.82086	342.87796	891.27223	419.50182	318.22202	909.66396	274.02173	353.40184	1094.18261	542.13005	104.13628	793.80107	468.16222	82.73773	823.16770	423.51091	108.04515	869.87367	539.72459	383.21949	812.94451	466.05745	395.44724	847.92387	416.09408	355.50662	874.78482	142.47326	67.70361	902.99883	131.24779	70.10907	522.03446	142.62360	142.72383	516.47183	178.10410	102.53264	520.68139	158.71010	365.12845	899.89178	111.40276	365.02822	521.73377	96.16820	293.01483	517.92513	143.62588	318.22202	517.57434	115.21141	54.17291	95.26615	114.50981	116.96539	92.05887	202.15868	106.49162	481.89338	68.25486	380.46324	96.56911	76.12272	318.22202	92.30944	166.77841	335.01011	481.29201	76.17283	83.68989	0.10023	220.50030	115.51209	1.20273	220.19962	48.81075	2.65603	239.29294	82.98829	2.20500	115.71254	83.63977	4.86103	316.16736	82.63750	2.20500	32.72425	343.32899	1.35307	180.55968	342.12626	0.60136	166.42761	407.32419	2.25512	192.18606	377.85733	1.45330	71.46214	351.59775	5.66285	267.30650	394.14428	0.45102 
525	2.183	148.88781	217.04245	926.00102	215.53904	100.62832	1003.52692	205.46619	339.97137	1001.37203	177.15194	120.42323	1073.78634	168.78296	318.27213	1072.03236	100.07707	164.97431	877.44084	95.91763	263.89877	876.53880	80.23204	214.28620	946.84832	113.75811	216.84200	1019.16240	113.60777	215.18825	1123.29868	116.41413	212.73267	1215.05687	260.34069	211.07892	1291.68072	265.35206	205.66664	1402.18144	129.84461	205.31585	1387.09721	122.77857	209.22471	1306.36404	133.70336	203.11084	1436.25876	287.30187	199.05163	1640.92313	230.67338	134.80586	1561.79359	230.37270	265.30195	1563.69791	182.11320	199.70311	1579.68418	186.87400	33.52607	1395.16552	168.23170	381.86642	1393.76234	332.50443	81.83568	1117.73606	310.15371	138.56439	1116.33287	298.07631	368.63641	1104.10513	285.79845	308.95099	1101.39899	392.64087	107.89480	897.68678	432.33092	127.78995	913.47260	302.03529	97.97229	1109.86820	384.12154	342.97819	891.47268	419.80250	318.32225	909.91452	274.22219	353.45195	1094.33296	542.43073	104.23650	794.10175	468.36268	82.78784	823.36816	423.66125	108.14537	869.97390	540.02527	383.36984	813.14496	466.35813	395.59758	848.12433	416.44488	355.60684	874.98527	142.47326	67.75373	902.99883	131.24779	70.10907	522.03446	142.57349	142.72383	516.47183	178.05399	102.58275	520.68139	158.65999	365.17856	899.89178	111.35265	365.07833	521.73377	96.11808	293.06494	517.92513	143.57576	318.22202	517.52422	115.21141	54.22303	95.26615	114.50981	116.96539	92.05887	202.10857	106.54173	481.94349	68.25486	380.46324	96.51899	76.12272	318.22202	92.30944	166.72829	335.01011	481.29201	76.17283	83.74000	0.10023	220.50030	115.56220	1.20273	220.19962	48.86086	2.65603	239.29294	82.98829	2.20500	115.71254	83.63977	4.86103	316.16736	82.68761	2.20500	32.72425	343.32899	1.35307	180.55968	342.12626	0.55125	166.42761	407.32419	2.25512	192.18606	377.85733	1.45330	71.46214	351.59775	5.66285	267.30650	394.14428	0.45102 
526	2.188	148.88781	217.04245	926.00102	215.58915	100.62832	1003.52692	205.41607	340.02148	1001.37203	177.15194	120.47334	1073.78634	168.73284	318.32225	1071.98224	100.07707	164.97431	877.39073	95.91763	263.89877	876.53880	80.23204	214.33631	946.84832	113.75811	216.89211	1019.16240	113.55765	215.18825	1123.29868	116.36402	212.73267	1215.05687	260.29058	211.07892	1291.73084	265.20172	205.66664	1402.23155	129.74438	205.31585	1387.09721	122.72846	209.27483	1306.36404	133.60314	203.11084	1436.25876	287.00118	199.00152	1641.02335	230.42281	134.75575	1561.84370	230.12213	265.30195	1563.79814	181.86263	199.65300	1579.68418	186.77378	33.52607	1395.11541	168.13148	381.91654	1393.76234	332.55454	81.93591	1117.83628	310.20383	138.66462	1116.43310	298.27677	368.68652	1104.30558	285.94880	309.00110	1101.49922	392.79121	107.94492	897.78701	432.38104	127.84006	913.57282	302.08541	98.07252	1109.91832	384.47234	343.02830	891.67314	420.10318	318.37236	910.11498	274.42264	353.50207	1094.43318	542.68130	104.33673	794.40244	468.61325	82.88807	823.51850	423.81160	108.19549	870.12424	540.32596	383.47006	813.34542	466.65881	395.69781	848.32478	416.69545	355.70707	875.23584	142.52337	67.75373	902.99883	131.19768	70.15919	522.03446	142.57349	142.77394	516.42172	178.05399	102.63287	520.68139	158.60987	365.22868	899.89178	111.30254	365.07833	521.73377	96.06797	293.06494	517.87502	143.52565	318.27213	517.52422	115.26152	54.22303	95.26615	114.50981	117.01550	92.00876	202.10857	106.59185	481.94349	68.25486	380.46324	96.51899	76.12272	318.22202	92.30944	166.67818	335.06023	481.29201	76.22294	83.74000	0.10023	220.55041	115.56220	1.20273	220.24973	48.86086	2.65603	239.34305	83.03841	2.20500	115.71254	83.68989	4.86103	316.21747	82.68761	2.20500	32.72425	343.32899	1.35307	180.55968	342.12626	0.55125	166.42761	407.32419	2.25512	192.18606	377.85733	1.45330	71.46214	351.59775	5.61273	267.30650	394.14428	0.45102 
527	2.192	148.88781	217.09257	926.00102	215.58915	100.67843	1003.52692	205.36596	340.07160	1001.37203	177.15194	120.47334	1073.78634	168.68273	318.32225	1071.98224	100.12718	164.97431	877.39073	95.86752	263.94888	876.53880	80.23204	214.33631	946.79821	113.75811	216.89211	1019.16240	113.50754	215.23836	1123.29868	116.31391	212.78279	1215.00675	260.19035	211.07892	1291.73084	265.15161	205.66664	1402.23155	129.64415	205.36596	1387.04710	122.62823	209.27483	1306.31392	133.50291	203.11084	1436.25876	286.65039	198.95141	1641.17369	230.22236	134.75575	1561.89381	229.92167	265.25184	1563.84825	181.61206	199.65300	1579.68418	186.67355	33.57618	1395.11541	168.03125	381.91654	1393.76234	332.55454	82.03613	1117.88640	310.20383	138.76485	1116.48321	298.47722	368.68652	1104.45592	286.09914	309.05121	1101.64956	392.89144	107.94492	897.88724	432.48127	127.94029	913.67305	302.13552	98.17275	1109.96843	384.77302	343.12853	891.87359	420.40386	318.47259	910.31543	274.62310	353.50207	1094.58352	542.93187	104.43696	794.70312	468.81370	82.93818	823.71895	423.96194	108.24560	870.22447	540.57653	383.62040	813.49576	466.90938	395.79803	848.47512	416.99613	355.75719	875.43630	142.52337	67.75373	902.99883	131.19768	70.20930	522.03446	142.52337	142.82406	516.42172	178.00388	102.68298	520.68139	158.55976	365.22868	899.89178	111.20231	365.07833	521.68366	96.01786	293.06494	517.87502	143.47553	318.27213	517.52422	115.26152	54.27314	95.26615	114.50981	117.01550	92.00876	202.10857	106.64196	481.94349	68.25486	380.46324	96.51899	76.12272	318.22202	92.25933	166.62807	335.06023	481.29201	76.22294	83.79011	0.05011	220.55041	115.61232	1.20273	220.24973	48.91098	2.65603	239.34305	83.08852	2.20500	115.76266	83.68989	4.86103	316.21747	82.73773	2.20500	32.77436	343.32899	1.30296	180.55968	342.12626	0.55125	166.42761	407.32419	2.25512	192.18606	377.85733	1.45330	71.46214	351.59775	5.61273	267.30650	394.14428	0.45102 
